<?xml version="1.0" encoding="utf-8"?>
<!-- Uploaded to: SVG Repo, www.svgrepo.com, Generator: SVG Repo Mixer Tools -->
<svg width="800px" height="800px" viewBox="-2.87 0 45.211 45.211" xmlns="http://www.w3.org/2000/svg">
  <g id="Group_4" data-name="Group 4" transform="translate(-493.237 -119.985)">
    <path id="Path_10" data-name="Path 10" d="M526.838,164.113H499.1a.878.878,0,0,1-.855-.675l-3.976-16.7a.879.879,0,0,1,.855-1.083h35.692a.879.879,0,0,1,.855,1.083l-3.976,16.7A.879.879,0,0,1,526.838,164.113Z" fill="none" stroke="#000000" stroke-linecap="round" stroke-linejoin="round" stroke-width="2"/>
    <line id="Line_3" data-name="Line 3" x2="1.604" y2="18.458" transform="translate(503.161 145.655)" fill="none" stroke="#000000" stroke-linecap="round" stroke-linejoin="round" stroke-width="2"/>
    <line id="Line_4" data-name="Line 4" x1="1.604" y2="18.458" transform="translate(520.503 145.655)" fill="none" stroke="#000000" stroke-linecap="round" stroke-linejoin="round" stroke-width="2"/>
    <line id="Line_5" data-name="Line 5" y2="17" transform="translate(512.91 146.36)" fill="none" stroke="#000000" stroke-linecap="round" stroke-linejoin="round" stroke-width="2"/>
    <path id="Path_11" data-name="Path 11" d="M530.814,145.655s2.971-4.295-1.917-7.588c0,0-2,3.494-13.355,7.588" fill="none" stroke="#000000" stroke-linecap="round" stroke-linejoin="round" stroke-width="2"/>
    <path id="Path_12" data-name="Path 12" d="M499.91,145.655a74.452,74.452,0,0,0,18.646-15.639c4.77-5.781,10.341,8.051,10.341,8.051" fill="none" stroke="#000000" stroke-linecap="round" stroke-linejoin="round" stroke-width="2"/>
    <path id="Path_13" data-name="Path 13" d="M496.033,145.007s-4.748-6.314,2.877-11.314,12.935-6.583,10.467-12.708c0,0,11.928,3.75,9.179,9.031" fill="none" stroke="#000000" stroke-linecap="round" stroke-linejoin="round" stroke-width="2"/>
  </g>
</svg>