<?xml version="1.0" encoding="iso-8859-1"?>
<!-- Uploaded to: SVG Repo, www.svgrepo.com, Generator: SVG Repo Mixer Tools -->
<!DOCTYPE svg PUBLIC "-//W3C//DTD SVG 1.1//EN" "http://www.w3.org/Graphics/SVG/1.1/DTD/svg11.dtd">
<svg fill="#000000" height="800px" width="800px" version="1.1" id="Capa_1" xmlns="http://www.w3.org/2000/svg" xmlns:xlink="http://www.w3.org/1999/xlink" 
	 viewBox="0 0 297 297" xml:space="preserve">
<path d="M292.474,173.925c0-51.425-43.366-94.989-102.705-109.049c8.108-8.91,12.236-18.189,12.275-27.716
	c0.078-20.331-16.396-36.938-36.723-37.023h-0.154c-5.934,0-11.549,1.415-16.523,3.924C143.642,1.487,137.98,0.025,131.982,0h-0.137
	c-0.017,0-0.053,0-0.068,0c-20.199,0.002-36.738,16.475-36.821,36.724c-0.037,9.64,4.12,19.061,12.348,28.136
	C47.928,78.9,4.526,122.479,4.526,173.925c0,19.432,12.981,35.923,30.825,41.456l6.94,45.097C45.392,280.617,64.489,297,84.865,297
	h127.27c20.376,0,39.474-16.383,42.573-36.522l6.923-44.983C279.459,210.082,292.474,193.497,292.474,173.925z M131.827,20.204
	c0.023,0,0.047,0,0.07,0c9.205,0.038,16.639,7.532,16.601,16.736c0.037-9.181,7.494-16.6,16.668-16.6c0.024,0,0.046,0,0.069,0
	c9.206,0.039,16.639,7.532,16.604,16.739c-0.067,16.667-33.473,33.2-33.473,33.2s-33.272-16.807-33.207-33.475
	C115.198,27.625,122.654,20.205,131.827,20.204z M212.135,276.796H84.865c-10.635,0-20.986-8.88-22.603-19.392l-6.264-40.693
	c10.341-1.81,19.437-7.286,25.889-15.039c8.071,9.582,20.228,15.691,33.802,15.691c13.297,0,25.208-6.078,33.135-15.618
	c8.023,9.54,20.079,15.618,33.538,15.618c13.298,0,25.209-6.078,33.136-15.618c6.39,7.598,15.342,12.988,25.518,14.872
	l-6.277,40.788C233.121,267.916,222.77,276.796,212.135,276.796z M249.035,197.159c-12.956,0-23.497-10.423-23.497-23.234
	c0-5.579-4.523-10.103-10.103-10.103c-5.578,0-10.102,4.523-10.102,10.103c0,12.811-10.306,23.234-22.973,23.234
	c-12.956,0-23.497-10.423-23.497-23.234c0-5.579-4.523-10.103-10.102-10.103c-5.579,0-10.102,4.523-10.102,10.103
	c0,12.811-10.305,23.234-22.972,23.234c-12.88,0-23.76-10.64-23.76-23.234c0-5.579-4.523-10.103-10.103-10.103
	c-5.578,0-10.102,4.523-10.102,10.103c0,12.811-10.423,23.234-23.234,23.234c-12.88,0-23.76-10.64-23.76-23.234
	c0-46.278,44.632-84.808,103.045-92.288c6.032,3.888,10.769,6.317,11.481,6.677c2.863,1.446,5.986,2.171,9.11,2.171
	c3.068,0,6.137-0.698,8.961-2.097c0.728-0.36,5.62-2.82,11.816-6.762c58.454,7.454,103.126,45.999,103.126,92.299
	C272.27,186.736,261.847,197.159,249.035,197.159z"/>
</svg>