<?xml version="1.0" encoding="iso-8859-1"?>
<!-- Uploaded to: SVG Repo, www.svgrepo.com, Generator: SVG Repo Mixer Tools -->
<!DOCTYPE svg PUBLIC "-//W3C//DTD SVG 1.1//EN" "http://www.w3.org/Graphics/SVG/1.1/DTD/svg11.dtd">
<svg fill="#000000" height="800px" width="800px" version="1.1" id="Capa_1" xmlns="http://www.w3.org/2000/svg" xmlns:xlink="http://www.w3.org/1999/xlink" 
	 viewBox="0 0 492.272 492.272" xml:space="preserve">
<path d="M462.358,322.054c-2.084,0-4.18,0.262-6.229,0.778c-36.271,9.13-77.794,18.741-110.758,20.799
	c-1.592,0.1-3.603,0.15-5.978,0.15c-25.118,0.001-64.851-4.641-72.06-8.417c-5.078-2.66-8.299-5.955-10.341-9.113h57.112
	c14.351,0,26.18-8.179,30.154-19.79H458.57c14.953,0,27.118-12.165,27.118-27.118V73.172c0-14.953-12.165-27.118-27.118-27.118
	l-237.378,0c-14.952,0-27.117,12.165-27.117,27.117v174.334c-24.67,0.834-58.712,7.93-80.399,25.845
	c-8.712,7.196-14.994,12.105-20.042,16.049c-3.265,2.551-6.084,4.754-8.739,6.934c-10.707,8.792-19.955,16.384-73.395,16.384
	c-6.352,0-11.5,5.149-11.5,11.5v110.5c0,3.741,1.82,7.249,4.879,9.403c1.965,1.383,4.282,2.097,6.622,2.097
	c1.304,0,2.615-0.222,3.875-0.673c45.587-16.322,53.712-18.698,73.34-24.441l1.765-0.516c1.634-0.479,3.213-0.96,4.768-1.434
	c9.052-2.761,16.201-4.942,29.635-4.942c14.686,0,34.658,2.632,62.858,8.282c55.195,11.059,81.786,15.906,104.766,15.906h0.001
	c13.343,0,25.529-1.571,41.288-3.79c32.857-4.626,97.456-26.195,130.419-43.545c10.494-5.523,28.058-14.768,28.058-34.495v-0.749
	C492.272,339.849,479.987,322.054,462.358,322.054z M313.574,69.055l52.613,0v95.566h-52.613V69.055z M221.192,69.055h69.382V176.12
	c0,6.351,5.148,11.5,11.5,11.5h75.613c6.352,0,11.5-5.149,11.5-11.5V69.054h69.383c2.27,0,4.118,1.847,4.118,4.118v206.171
	c0,2.271-1.848,4.118-4.118,4.118H344.633c-3.247-13.469-14.385-23.054-28.625-23.975c-13.76-0.89-35.651-3.545-56.822-6.114
	c-15.455-1.875-30.223-3.665-42.11-4.827V73.172C217.075,70.902,218.922,69.055,221.192,69.055z M469.272,356.569
	c0,4.477-3.685,7.781-15.77,14.143c-30.598,16.105-92.628,36.858-122.913,41.122c-14.825,2.088-26.234,3.566-38.081,3.565
	c-19.761,0-42.362-3.859-100.249-15.457c-29.725-5.956-51.135-8.73-67.376-8.73c-16.863,0-26.768,3.022-36.345,5.943
	c-1.475,0.45-2.97,0.906-4.519,1.359l-1.762,0.516c-17.63,5.158-26.189,7.662-59.258,19.381v-82.819
	c47.961-1.101,61.711-9.349,76.489-21.482c2.44-2.003,5.158-4.126,8.306-6.586c5.157-4.03,11.576-9.045,20.529-16.44
	c17.279-14.274,47.946-20.664,70.674-20.664c2.614,0,5.095,0.088,7.37,0.264c12.404,0.954,30.689,3.172,50.048,5.521
	c21.485,2.607,43.703,5.302,58.107,6.234c4.577,0.296,7.657,3.438,8.035,8.155c0.052,0.799,0.111,4.463,0.134,7.295
	c0,3.658-5.124,5.363-8.587,5.363H241.98c-6.13,0-11.182,4.808-11.486,10.93c-0.055,1.108-1.033,27.308,26.167,41.556
	c14.811,7.759,65.186,11.043,82.732,11.043c2.851,0,5.345-0.065,7.411-0.195c34.833-2.175,77.649-12.064,114.939-21.45
	c0.219-0.055,0.42-0.082,0.615-0.082c2.601,0,6.914,5.215,6.914,10.767V356.569z"/>
</svg>